<svg xmlns="http://www.w3.org/2000/svg" viewBox="0 0 180 200"><defs><filter id="r" x="-18%" y="-18%" width="136%" height="136%"><feTurbulence type="fractalNoise" baseFrequency="0.045" numOctaves="3" seed="5"></feTurbulence><feDisplacementMap in="SourceGraphic" scale="6"></feDisplacementMap></filter></defs><g filter="url(#r)"><path d="M90,14 C136,14 162,48 162,88 C162,112 152,128 138,138 L136,164 C136,172 130,178 122,178 L58,178 C50,178 44,172 44,164 L42,138 C28,128 18,112 18,88 C18,48 44,14 90,14 Z" fill="#ddd2bf" stroke="#0d0a08" stroke-width="4"></path>
<ellipse cx="60" cy="96" rx="17" ry="21" fill="#0d0a08"></ellipse><ellipse cx="120" cy="96" rx="17" ry="21" fill="#0d0a08"></ellipse>
<path d="M90,112 L80,138 L100,138 Z" fill="#0d0a08"></path>
<line x1="62" y1="150" x2="62" y2="176" stroke="#0d0a08" stroke-width="3"></line><line x1="76" y1="150" x2="76" y2="178" stroke="#0d0a08" stroke-width="3"></line><line x1="90" y1="150" x2="90" y2="178" stroke="#0d0a08" stroke-width="3"></line><line x1="104" y1="150" x2="104" y2="178" stroke="#0d0a08" stroke-width="3"></line><line x1="118" y1="150" x2="118" y2="176" stroke="#0d0a08" stroke-width="3"></line>
<path d="M64,150 L116,150" stroke="#0d0a08" stroke-width="3"></path>
<path d="M90,16 C88,30 94,40 88,52" stroke="#0d0a08" stroke-width="2" fill="none" opacity="0.6"></path></g></svg>