<svg xmlns="http://www.w3.org/2000/svg" viewBox="0 0 200 200"><defs><filter id="r" x="-18%" y="-18%" width="136%" height="136%"><feTurbulence type="fractalNoise" baseFrequency="0.055" numOctaves="3" seed="43"></feTurbulence><feDisplacementMap in="SourceGraphic" scale="26"></feDisplacementMap></filter></defs><g filter="url(#r)"><circle cx="100" cy="100" r="48.0" fill="#191312" fill-opacity="1"></circle><circle cx="88.1" cy="171.1" r="2.5" fill="#191312" fill-opacity="1"></circle><circle cx="174.0" cy="131.1" r="2.3" fill="#191312" fill-opacity="1"></circle><circle cx="179.0" cy="132.5" r="3.5" fill="#191312" fill-opacity="1"></circle><circle cx="94.9" cy="184.3" r="9.5" fill="#191312" fill-opacity="1"></circle><circle cx="165.0" cy="124.2" r="4.2" fill="#191312" fill-opacity="1"></circle><circle cx="49.1" cy="159.5" r="7.6" fill="#191312" fill-opacity="1"></circle><circle cx="156.1" cy="75.9" r="2.5" fill="#191312" fill-opacity="1"></circle><circle cx="161.2" cy="73.5" r="7.0" fill="#191312" fill-opacity="1"></circle><circle cx="26.2" cy="138.2" r="7.4" fill="#191312" fill-opacity="1"></circle><ellipse cx="51.1" cy="53.0" rx="3.2" ry="11.0" transform="rotate(314 51.1 53.0)" fill="#191312" fill-opacity="1"></ellipse><ellipse cx="56.7" cy="73.0" rx="3.2" ry="9.1" transform="rotate(302 56.7 73.0)" fill="#191312" fill-opacity="1"></ellipse><ellipse cx="129.7" cy="42.5" rx="3.2" ry="13.1" transform="rotate(387 129.7 42.5)" fill="#191312" fill-opacity="1"></ellipse><ellipse cx="152.2" cy="65.3" rx="3.2" ry="15.3" transform="rotate(416 152.2 65.3)" fill="#191312" fill-opacity="1"></ellipse></g></svg>